<mxfile host="app.diagrams.net" agent="Mozilla/5.0 (Windows NT 10.0; Win64; x64) AppleWebKit/537.36 (KHTML, like Gecko) Chrome/134.0.0.0 Safari/537.36" version="26.1.1">
  <diagram name="第 1 页" id="CaoUl8lfYqa5CZjbUaFf">
    <mxGraphModel dx="1648" dy="900" grid="1" gridSize="10" guides="1" tooltips="1" connect="1" arrows="1" fold="1" page="1" pageScale="1" pageWidth="1169" pageHeight="827" math="0" shadow="0">
      <root>
        <mxCell id="0" />
        <mxCell id="1" parent="0" />
        <mxCell id="rZFMNAKhzuR98ad_Tr1y-1" value="" style="rounded=0;whiteSpace=wrap;html=1;dashed=1;fillColor=none;fillStyle=hatch;" parent="1" vertex="1">
          <mxGeometry x="50" y="130" width="160" height="460" as="geometry" />
        </mxCell>
        <mxCell id="rZFMNAKhzuR98ad_Tr1y-2" value="&lt;font style=&quot;font-size: 16px;&quot;&gt;Sources&lt;/font&gt;" style="text;strokeColor=none;fillColor=default;align=center;verticalAlign=middle;spacingLeft=4;spacingRight=4;overflow=hidden;points=[[0,0.5],[1,0.5]];portConstraint=eastwest;rotatable=0;whiteSpace=wrap;html=1;gradientColor=none;" parent="1" vertex="1">
          <mxGeometry x="90" y="110" width="80" height="30" as="geometry" />
        </mxCell>
        <mxCell id="rZFMNAKhzuR98ad_Tr1y-4" value="" style="rounded=1;whiteSpace=wrap;html=1;fillColor=#ffe6cc;strokeColor=#d79b00;" parent="1" vertex="1">
          <mxGeometry x="290" y="130" width="170" height="40" as="geometry" />
        </mxCell>
        <mxCell id="rZFMNAKhzuR98ad_Tr1y-5" value="" style="rounded=1;whiteSpace=wrap;html=1;arcSize=4;fillColor=default;strokeColor=#d79b00;fillStyle=hatch;" parent="1" vertex="1">
          <mxGeometry x="290" y="180" width="170" height="410" as="geometry" />
        </mxCell>
        <mxCell id="rZFMNAKhzuR98ad_Tr1y-6" value="&lt;font style=&quot;font-size: 16px;&quot;&gt;&lt;b&gt;Bronze Layer&lt;/b&gt;&lt;/font&gt;" style="text;html=1;align=center;verticalAlign=middle;whiteSpace=wrap;rounded=0;" parent="1" vertex="1">
          <mxGeometry x="310" y="135" width="130" height="30" as="geometry" />
        </mxCell>
        <mxCell id="rZFMNAKhzuR98ad_Tr1y-7" value="" style="rounded=1;whiteSpace=wrap;html=1;fillColor=#ffe6cc;strokeColor=#d79b00;" parent="1" vertex="1">
          <mxGeometry x="310" y="230" width="130" height="30" as="geometry" />
        </mxCell>
        <mxCell id="rZFMNAKhzuR98ad_Tr1y-8" value="crm_sales_details" style="text;html=1;align=center;verticalAlign=middle;whiteSpace=wrap;rounded=0;" parent="1" vertex="1">
          <mxGeometry x="310" y="230" width="130" height="30" as="geometry" />
        </mxCell>
        <mxCell id="rZFMNAKhzuR98ad_Tr1y-9" value="crm_sales_details" style="text;html=1;align=center;verticalAlign=middle;whiteSpace=wrap;rounded=0;" parent="1" vertex="1">
          <mxGeometry x="310" y="290" width="130" height="30" as="geometry" />
        </mxCell>
        <mxCell id="rZFMNAKhzuR98ad_Tr1y-10" value="" style="rounded=1;whiteSpace=wrap;html=1;fillColor=#ffe6cc;strokeColor=#d79b00;" parent="1" vertex="1">
          <mxGeometry x="310" y="280" width="130" height="30" as="geometry" />
        </mxCell>
        <mxCell id="rZFMNAKhzuR98ad_Tr1y-11" value="crm_sales_details" style="text;html=1;align=center;verticalAlign=middle;whiteSpace=wrap;rounded=0;" parent="1" vertex="1">
          <mxGeometry x="310" y="340" width="130" height="30" as="geometry" />
        </mxCell>
        <mxCell id="rZFMNAKhzuR98ad_Tr1y-12" value="" style="rounded=1;whiteSpace=wrap;html=1;fillColor=#ffe6cc;strokeColor=#d79b00;" parent="1" vertex="1">
          <mxGeometry x="310" y="330" width="130" height="30" as="geometry" />
        </mxCell>
        <mxCell id="rZFMNAKhzuR98ad_Tr1y-13" value="crm_sales_details" style="text;html=1;align=center;verticalAlign=middle;whiteSpace=wrap;rounded=0;" parent="1" vertex="1">
          <mxGeometry x="310" y="399" width="130" height="30" as="geometry" />
        </mxCell>
        <mxCell id="rZFMNAKhzuR98ad_Tr1y-14" value="" style="rounded=1;whiteSpace=wrap;html=1;fillColor=#ffe6cc;strokeColor=#d79b00;" parent="1" vertex="1">
          <mxGeometry x="310" y="389" width="130" height="30" as="geometry" />
        </mxCell>
        <mxCell id="rZFMNAKhzuR98ad_Tr1y-15" value="crm_sales_details" style="text;html=1;align=center;verticalAlign=middle;whiteSpace=wrap;rounded=0;" parent="1" vertex="1">
          <mxGeometry x="310" y="450" width="130" height="30" as="geometry" />
        </mxCell>
        <mxCell id="rZFMNAKhzuR98ad_Tr1y-16" value="" style="rounded=1;whiteSpace=wrap;html=1;fillColor=#ffe6cc;strokeColor=#d79b00;" parent="1" vertex="1">
          <mxGeometry x="310" y="440" width="130" height="30" as="geometry" />
        </mxCell>
        <mxCell id="rZFMNAKhzuR98ad_Tr1y-17" value="crm_sales_details" style="text;html=1;align=center;verticalAlign=middle;whiteSpace=wrap;rounded=0;" parent="1" vertex="1">
          <mxGeometry x="310" y="500" width="130" height="30" as="geometry" />
        </mxCell>
        <mxCell id="rZFMNAKhzuR98ad_Tr1y-18" value="" style="rounded=1;whiteSpace=wrap;html=1;fillColor=#ffe6cc;strokeColor=#d79b00;" parent="1" vertex="1">
          <mxGeometry x="310" y="490" width="130" height="30" as="geometry" />
        </mxCell>
        <mxCell id="rZFMNAKhzuR98ad_Tr1y-19" value="crm_cust_info" style="text;html=1;align=center;verticalAlign=middle;whiteSpace=wrap;rounded=0;" parent="1" vertex="1">
          <mxGeometry x="310" y="280" width="130" height="30" as="geometry" />
        </mxCell>
        <mxCell id="rZFMNAKhzuR98ad_Tr1y-20" value="crm_prd_info" style="text;html=1;align=center;verticalAlign=middle;whiteSpace=wrap;rounded=0;" parent="1" vertex="1">
          <mxGeometry x="310" y="330" width="130" height="30" as="geometry" />
        </mxCell>
        <mxCell id="rZFMNAKhzuR98ad_Tr1y-21" value="erp_cust_az12" style="text;html=1;align=center;verticalAlign=middle;whiteSpace=wrap;rounded=0;" parent="1" vertex="1">
          <mxGeometry x="310" y="389" width="130" height="30" as="geometry" />
        </mxCell>
        <mxCell id="rZFMNAKhzuR98ad_Tr1y-22" value="erp_loc_a101" style="text;html=1;align=center;verticalAlign=middle;whiteSpace=wrap;rounded=0;" parent="1" vertex="1">
          <mxGeometry x="310" y="440" width="130" height="30" as="geometry" />
        </mxCell>
        <mxCell id="rZFMNAKhzuR98ad_Tr1y-23" value="erp_px_cat_g1v2" style="text;html=1;align=center;verticalAlign=middle;whiteSpace=wrap;rounded=0;" parent="1" vertex="1">
          <mxGeometry x="310" y="490" width="130" height="30" as="geometry" />
        </mxCell>
        <mxCell id="rZFMNAKhzuR98ad_Tr1y-24" value="" style="rounded=1;whiteSpace=wrap;html=1;fillColor=#f5f5f5;strokeColor=#666666;fontColor=#333333;" parent="1" vertex="1">
          <mxGeometry x="540" y="130" width="170" height="40" as="geometry" />
        </mxCell>
        <mxCell id="rZFMNAKhzuR98ad_Tr1y-25" value="" style="rounded=1;whiteSpace=wrap;html=1;arcSize=4;fillColor=default;strokeColor=#666666;fontColor=#333333;fillStyle=hatch;" parent="1" vertex="1">
          <mxGeometry x="540" y="180" width="170" height="410" as="geometry" />
        </mxCell>
        <mxCell id="rZFMNAKhzuR98ad_Tr1y-26" value="&lt;font style=&quot;font-size: 16px;&quot;&gt;&lt;b&gt;Silver Layer&lt;/b&gt;&lt;/font&gt;" style="text;html=1;align=center;verticalAlign=middle;whiteSpace=wrap;rounded=0;" parent="1" vertex="1">
          <mxGeometry x="560" y="135" width="130" height="30" as="geometry" />
        </mxCell>
        <mxCell id="rZFMNAKhzuR98ad_Tr1y-27" value="" style="rounded=1;whiteSpace=wrap;html=1;fillColor=#ffe6cc;strokeColor=#d79b00;" parent="1" vertex="1">
          <mxGeometry x="560" y="230" width="130" height="30" as="geometry" />
        </mxCell>
        <mxCell id="rZFMNAKhzuR98ad_Tr1y-28" value="crm_sales_details" style="text;html=1;align=center;verticalAlign=middle;whiteSpace=wrap;rounded=0;fillColor=#f5f5f5;fontColor=#333333;strokeColor=#666666;" parent="1" vertex="1">
          <mxGeometry x="560" y="230" width="130" height="30" as="geometry" />
        </mxCell>
        <mxCell id="rZFMNAKhzuR98ad_Tr1y-29" value="crm_sales_details" style="text;html=1;align=center;verticalAlign=middle;whiteSpace=wrap;rounded=0;" parent="1" vertex="1">
          <mxGeometry x="560" y="290" width="130" height="30" as="geometry" />
        </mxCell>
        <mxCell id="rZFMNAKhzuR98ad_Tr1y-30" value="" style="rounded=1;whiteSpace=wrap;html=1;fillColor=#ffe6cc;strokeColor=#d79b00;" parent="1" vertex="1">
          <mxGeometry x="560" y="280" width="130" height="30" as="geometry" />
        </mxCell>
        <mxCell id="rZFMNAKhzuR98ad_Tr1y-31" value="crm_sales_details" style="text;html=1;align=center;verticalAlign=middle;whiteSpace=wrap;rounded=0;" parent="1" vertex="1">
          <mxGeometry x="560" y="340" width="130" height="30" as="geometry" />
        </mxCell>
        <mxCell id="rZFMNAKhzuR98ad_Tr1y-32" value="" style="rounded=1;whiteSpace=wrap;html=1;fillColor=#ffe6cc;strokeColor=#d79b00;" parent="1" vertex="1">
          <mxGeometry x="560" y="330" width="130" height="30" as="geometry" />
        </mxCell>
        <mxCell id="rZFMNAKhzuR98ad_Tr1y-33" value="crm_sales_details" style="text;html=1;align=center;verticalAlign=middle;whiteSpace=wrap;rounded=0;" parent="1" vertex="1">
          <mxGeometry x="560" y="399" width="130" height="30" as="geometry" />
        </mxCell>
        <mxCell id="rZFMNAKhzuR98ad_Tr1y-34" value="" style="rounded=1;whiteSpace=wrap;html=1;fillColor=#ffe6cc;strokeColor=#d79b00;" parent="1" vertex="1">
          <mxGeometry x="560" y="389" width="130" height="30" as="geometry" />
        </mxCell>
        <mxCell id="rZFMNAKhzuR98ad_Tr1y-35" value="crm_sales_details" style="text;html=1;align=center;verticalAlign=middle;whiteSpace=wrap;rounded=0;" parent="1" vertex="1">
          <mxGeometry x="560" y="450" width="130" height="30" as="geometry" />
        </mxCell>
        <mxCell id="rZFMNAKhzuR98ad_Tr1y-36" value="" style="rounded=1;whiteSpace=wrap;html=1;fillColor=#ffe6cc;strokeColor=#d79b00;" parent="1" vertex="1">
          <mxGeometry x="560" y="440" width="130" height="30" as="geometry" />
        </mxCell>
        <mxCell id="rZFMNAKhzuR98ad_Tr1y-37" value="crm_sales_details" style="text;html=1;align=center;verticalAlign=middle;whiteSpace=wrap;rounded=0;" parent="1" vertex="1">
          <mxGeometry x="560" y="500" width="130" height="30" as="geometry" />
        </mxCell>
        <mxCell id="rZFMNAKhzuR98ad_Tr1y-38" value="" style="rounded=1;whiteSpace=wrap;html=1;fillColor=#ffe6cc;strokeColor=#d79b00;" parent="1" vertex="1">
          <mxGeometry x="560" y="490" width="130" height="30" as="geometry" />
        </mxCell>
        <mxCell id="rZFMNAKhzuR98ad_Tr1y-39" value="crm_cust_info" style="text;html=1;align=center;verticalAlign=middle;whiteSpace=wrap;rounded=0;fillColor=#f5f5f5;fontColor=#333333;strokeColor=#666666;" parent="1" vertex="1">
          <mxGeometry x="560" y="280" width="130" height="30" as="geometry" />
        </mxCell>
        <mxCell id="rZFMNAKhzuR98ad_Tr1y-40" value="crm_prd_info" style="text;html=1;align=center;verticalAlign=middle;whiteSpace=wrap;rounded=0;fillColor=#f5f5f5;fontColor=#333333;strokeColor=#666666;" parent="1" vertex="1">
          <mxGeometry x="560" y="330" width="130" height="30" as="geometry" />
        </mxCell>
        <mxCell id="rZFMNAKhzuR98ad_Tr1y-41" value="erp_cust_az12" style="text;html=1;align=center;verticalAlign=middle;whiteSpace=wrap;rounded=0;fillColor=#f5f5f5;fontColor=#333333;strokeColor=#666666;" parent="1" vertex="1">
          <mxGeometry x="560" y="389" width="130" height="30" as="geometry" />
        </mxCell>
        <mxCell id="rZFMNAKhzuR98ad_Tr1y-42" value="erp_loc_a101" style="text;html=1;align=center;verticalAlign=middle;whiteSpace=wrap;rounded=0;fillColor=#f5f5f5;fontColor=#333333;strokeColor=#666666;" parent="1" vertex="1">
          <mxGeometry x="560" y="440" width="130" height="30" as="geometry" />
        </mxCell>
        <mxCell id="rZFMNAKhzuR98ad_Tr1y-43" value="erp_px_cat_g1v2" style="text;html=1;align=center;verticalAlign=middle;whiteSpace=wrap;rounded=0;fillColor=#f5f5f5;fontColor=#333333;strokeColor=#666666;" parent="1" vertex="1">
          <mxGeometry x="560" y="490" width="130" height="30" as="geometry" />
        </mxCell>
        <mxCell id="rZFMNAKhzuR98ad_Tr1y-44" value="" style="rounded=1;whiteSpace=wrap;html=1;fillColor=#FFFF99;strokeColor=#d6b656;" parent="1" vertex="1">
          <mxGeometry x="810" y="130" width="170" height="40" as="geometry" />
        </mxCell>
        <mxCell id="rZFMNAKhzuR98ad_Tr1y-45" value="" style="rounded=1;whiteSpace=wrap;html=1;arcSize=4;fillColor=#FFFF99;strokeColor=#d6b656;fillStyle=hatch;" parent="1" vertex="1">
          <mxGeometry x="810" y="180" width="170" height="410" as="geometry" />
        </mxCell>
        <mxCell id="rZFMNAKhzuR98ad_Tr1y-46" value="&lt;font style=&quot;font-size: 16px;&quot;&gt;&lt;b&gt;Gold Layer&lt;/b&gt;&lt;/font&gt;" style="text;html=1;align=center;verticalAlign=middle;whiteSpace=wrap;rounded=0;" parent="1" vertex="1">
          <mxGeometry x="830" y="135" width="130" height="30" as="geometry" />
        </mxCell>
        <mxCell id="rZFMNAKhzuR98ad_Tr1y-48" value="fact_sales" style="text;html=1;align=center;verticalAlign=middle;whiteSpace=wrap;rounded=0;fillColor=#FFFF99;strokeColor=#FFE599;" parent="1" vertex="1">
          <mxGeometry x="830" y="230" width="130" height="30" as="geometry" />
        </mxCell>
        <mxCell id="rZFMNAKhzuR98ad_Tr1y-63" value="dim_products" style="text;html=1;align=center;verticalAlign=middle;whiteSpace=wrap;rounded=0;fillColor=#FFFF99;strokeColor=#FFE599;" parent="1" vertex="1">
          <mxGeometry x="830" y="450" width="130" height="30" as="geometry" />
        </mxCell>
        <mxCell id="rZFMNAKhzuR98ad_Tr1y-61" value="dim_customers" style="text;html=1;align=center;verticalAlign=middle;whiteSpace=wrap;rounded=0;fillColor=#FFFF99;strokeColor=#FFE599;" parent="1" vertex="1">
          <mxGeometry x="830" y="360" width="130" height="30" as="geometry" />
        </mxCell>
        <mxCell id="rZFMNAKhzuR98ad_Tr1y-64" value="" style="endArrow=classic;html=1;rounded=0;entryX=0;entryY=0.5;entryDx=0;entryDy=0;" parent="1" target="rZFMNAKhzuR98ad_Tr1y-19" edge="1">
          <mxGeometry width="50" height="50" relative="1" as="geometry">
            <mxPoint x="160" y="294.67" as="sourcePoint" />
            <mxPoint x="240.02999999999975" y="294.64000000000004" as="targetPoint" />
          </mxGeometry>
        </mxCell>
        <mxCell id="rZFMNAKhzuR98ad_Tr1y-65" value="" style="endArrow=classic;html=1;rounded=0;entryX=0;entryY=0.5;entryDx=0;entryDy=0;" parent="1" edge="1">
          <mxGeometry width="50" height="50" relative="1" as="geometry">
            <mxPoint x="160" y="454.64" as="sourcePoint" />
            <mxPoint x="310" y="454.97" as="targetPoint" />
          </mxGeometry>
        </mxCell>
        <mxCell id="rZFMNAKhzuR98ad_Tr1y-66" value="" style="endArrow=classic;html=1;rounded=0;entryX=0;entryY=0.5;entryDx=0;entryDy=0;exitX=1;exitY=0.5;exitDx=0;exitDy=0;" parent="1" source="rZFMNAKhzuR98ad_Tr1y-22" edge="1">
          <mxGeometry width="50" height="50" relative="1" as="geometry">
            <mxPoint x="410" y="454.64" as="sourcePoint" />
            <mxPoint x="560" y="454.97" as="targetPoint" />
          </mxGeometry>
        </mxCell>
        <mxCell id="rZFMNAKhzuR98ad_Tr1y-67" value="" style="endArrow=classic;html=1;rounded=0;entryX=0;entryY=0.5;entryDx=0;entryDy=0;exitX=1;exitY=0.5;exitDx=0;exitDy=0;" parent="1" edge="1">
          <mxGeometry width="50" height="50" relative="1" as="geometry">
            <mxPoint x="440" y="504.67" as="sourcePoint" />
            <mxPoint x="560" y="504.64000000000004" as="targetPoint" />
          </mxGeometry>
        </mxCell>
        <mxCell id="rZFMNAKhzuR98ad_Tr1y-68" value="" style="endArrow=classic;html=1;rounded=0;entryX=0;entryY=0.5;entryDx=0;entryDy=0;exitX=1;exitY=0.5;exitDx=0;exitDy=0;" parent="1" edge="1">
          <mxGeometry width="50" height="50" relative="1" as="geometry">
            <mxPoint x="440" y="403.67" as="sourcePoint" />
            <mxPoint x="560" y="403.64000000000004" as="targetPoint" />
          </mxGeometry>
        </mxCell>
        <mxCell id="rZFMNAKhzuR98ad_Tr1y-69" value="" style="endArrow=classic;html=1;rounded=0;entryX=0;entryY=0.5;entryDx=0;entryDy=0;exitX=1;exitY=0.5;exitDx=0;exitDy=0;" parent="1" edge="1">
          <mxGeometry width="50" height="50" relative="1" as="geometry">
            <mxPoint x="440" y="344.67" as="sourcePoint" />
            <mxPoint x="560" y="344.64000000000004" as="targetPoint" />
          </mxGeometry>
        </mxCell>
        <mxCell id="rZFMNAKhzuR98ad_Tr1y-70" value="" style="endArrow=classic;html=1;rounded=0;entryX=0;entryY=0.5;entryDx=0;entryDy=0;exitX=1;exitY=0.5;exitDx=0;exitDy=0;" parent="1" edge="1">
          <mxGeometry width="50" height="50" relative="1" as="geometry">
            <mxPoint x="440" y="294.67" as="sourcePoint" />
            <mxPoint x="560" y="294.64000000000004" as="targetPoint" />
          </mxGeometry>
        </mxCell>
        <mxCell id="rZFMNAKhzuR98ad_Tr1y-71" value="" style="endArrow=classic;html=1;rounded=0;entryX=0;entryY=0.5;entryDx=0;entryDy=0;exitX=1;exitY=0.5;exitDx=0;exitDy=0;" parent="1" edge="1">
          <mxGeometry width="50" height="50" relative="1" as="geometry">
            <mxPoint x="440" y="244.67000000000002" as="sourcePoint" />
            <mxPoint x="560" y="244.64000000000004" as="targetPoint" />
          </mxGeometry>
        </mxCell>
        <mxCell id="rZFMNAKhzuR98ad_Tr1y-72" value="" style="endArrow=classic;html=1;rounded=0;entryX=0;entryY=0.5;entryDx=0;entryDy=0;exitX=1;exitY=0.5;exitDx=0;exitDy=0;" parent="1" source="rZFMNAKhzuR98ad_Tr1y-28" edge="1">
          <mxGeometry width="50" height="50" relative="1" as="geometry">
            <mxPoint x="710" y="244.67000000000002" as="sourcePoint" />
            <mxPoint x="830" y="244.64000000000004" as="targetPoint" />
          </mxGeometry>
        </mxCell>
        <mxCell id="rZFMNAKhzuR98ad_Tr1y-73" value="" style="endArrow=classic;html=1;rounded=0;exitX=1;exitY=0.5;exitDx=0;exitDy=0;jumpStyle=gap;" parent="1" edge="1">
          <mxGeometry width="50" height="50" relative="1" as="geometry">
            <mxPoint x="690" y="295" as="sourcePoint" />
            <mxPoint x="830" y="380" as="targetPoint" />
          </mxGeometry>
        </mxCell>
        <mxCell id="rZFMNAKhzuR98ad_Tr1y-74" value="" style="endArrow=none;html=1;rounded=0;" parent="1" edge="1">
          <mxGeometry width="50" height="50" relative="1" as="geometry">
            <mxPoint x="240" y="350" as="sourcePoint" />
            <mxPoint x="240" y="240" as="targetPoint" />
          </mxGeometry>
        </mxCell>
        <mxCell id="rZFMNAKhzuR98ad_Tr1y-75" value="" style="endArrow=classic;html=1;rounded=0;entryX=0.014;entryY=0.218;entryDx=0;entryDy=0;entryPerimeter=0;" parent="1" edge="1">
          <mxGeometry width="50" height="50" relative="1" as="geometry">
            <mxPoint x="237.62" y="245.26" as="sourcePoint" />
            <mxPoint x="309.9999999999999" y="244.64" as="targetPoint" />
          </mxGeometry>
        </mxCell>
        <mxCell id="rZFMNAKhzuR98ad_Tr1y-76" value="" style="endArrow=classic;html=1;rounded=0;entryX=0.014;entryY=0.218;entryDx=0;entryDy=0;entryPerimeter=0;" parent="1" edge="1">
          <mxGeometry width="50" height="50" relative="1" as="geometry">
            <mxPoint x="237.62" y="345.26" as="sourcePoint" />
            <mxPoint x="309.9999999999999" y="344.64" as="targetPoint" />
          </mxGeometry>
        </mxCell>
        <mxCell id="rZFMNAKhzuR98ad_Tr1y-77" value="" style="endArrow=classic;html=1;rounded=0;entryX=0.014;entryY=0.218;entryDx=0;entryDy=0;entryPerimeter=0;" parent="1" edge="1">
          <mxGeometry width="50" height="50" relative="1" as="geometry">
            <mxPoint x="237.62" y="404.26" as="sourcePoint" />
            <mxPoint x="309.9999999999999" y="403.64" as="targetPoint" />
          </mxGeometry>
        </mxCell>
        <mxCell id="rZFMNAKhzuR98ad_Tr1y-78" value="" style="endArrow=classic;html=1;rounded=0;entryX=0.014;entryY=0.218;entryDx=0;entryDy=0;entryPerimeter=0;" parent="1" edge="1">
          <mxGeometry width="50" height="50" relative="1" as="geometry">
            <mxPoint x="237.62" y="505.26" as="sourcePoint" />
            <mxPoint x="309.9999999999999" y="504.64" as="targetPoint" />
          </mxGeometry>
        </mxCell>
        <mxCell id="rZFMNAKhzuR98ad_Tr1y-79" value="" style="endArrow=none;html=1;rounded=0;" parent="1" edge="1">
          <mxGeometry width="50" height="50" relative="1" as="geometry">
            <mxPoint x="240" y="509" as="sourcePoint" />
            <mxPoint x="240" y="399" as="targetPoint" />
          </mxGeometry>
        </mxCell>
        <mxCell id="rZFMNAKhzuR98ad_Tr1y-80" value="" style="endArrow=classic;html=1;rounded=0;entryX=0;entryY=0.5;entryDx=0;entryDy=0;exitX=1;exitY=0.5;exitDx=0;exitDy=0;jumpStyle=gap;" parent="1" target="rZFMNAKhzuR98ad_Tr1y-63" edge="1">
          <mxGeometry width="50" height="50" relative="1" as="geometry">
            <mxPoint x="690" y="504.67" as="sourcePoint" />
            <mxPoint x="810" y="504.64000000000004" as="targetPoint" />
          </mxGeometry>
        </mxCell>
        <mxCell id="rZFMNAKhzuR98ad_Tr1y-82" value="" style="endArrow=classic;html=1;rounded=0;entryX=0;entryY=0.5;entryDx=0;entryDy=0;exitX=1;exitY=0.5;exitDx=0;exitDy=0;jumpStyle=gap;" parent="1" edge="1">
          <mxGeometry width="50" height="50" relative="1" as="geometry">
            <mxPoint x="690" y="454.67" as="sourcePoint" />
            <mxPoint x="830" y="374.9999999999999" as="targetPoint" />
          </mxGeometry>
        </mxCell>
        <mxCell id="rZFMNAKhzuR98ad_Tr1y-83" value="" style="endArrow=classic;html=1;rounded=0;exitX=1;exitY=0.5;exitDx=0;exitDy=0;jumpStyle=gap;" parent="1" edge="1">
          <mxGeometry width="50" height="50" relative="1" as="geometry">
            <mxPoint x="690" y="403.67" as="sourcePoint" />
            <mxPoint x="830" y="380" as="targetPoint" />
          </mxGeometry>
        </mxCell>
        <mxCell id="rZFMNAKhzuR98ad_Tr1y-84" value="" style="endArrow=classic;html=1;rounded=0;entryX=0;entryY=0.5;entryDx=0;entryDy=0;exitX=1;exitY=0.5;exitDx=0;exitDy=0;jumpStyle=gap;" parent="1" edge="1">
          <mxGeometry width="50" height="50" relative="1" as="geometry">
            <mxPoint x="690" y="344.67" as="sourcePoint" />
            <mxPoint x="830" y="465" as="targetPoint" />
          </mxGeometry>
        </mxCell>
        <mxCell id="rZFMNAKhzuR98ad_Tr1y-85" value="" style="image;aspect=fixed;html=1;points=[];align=center;fontSize=12;image=img/lib/azure2/general/Folder_Blank.svg;" parent="1" vertex="1">
          <mxGeometry x="95.5" y="254" width="69" height="56.00000000000001" as="geometry" />
        </mxCell>
        <mxCell id="rZFMNAKhzuR98ad_Tr1y-87" value="" style="image;aspect=fixed;html=1;points=[];align=center;fontSize=12;image=img/lib/azure2/general/File.svg;" parent="1" vertex="1">
          <mxGeometry x="141.37" y="290" width="23.13" height="28.5" as="geometry" />
        </mxCell>
        <mxCell id="rZFMNAKhzuR98ad_Tr1y-89" value="" style="image;aspect=fixed;html=1;points=[];align=center;fontSize=12;image=img/lib/azure2/general/Folder_Blank.svg;" parent="1" vertex="1">
          <mxGeometry x="95.5" y="419" width="69" height="56.00000000000001" as="geometry" />
        </mxCell>
        <mxCell id="rZFMNAKhzuR98ad_Tr1y-88" value="" style="image;aspect=fixed;html=1;points=[];align=center;fontSize=12;image=img/lib/azure2/general/File.svg;" parent="1" vertex="1">
          <mxGeometry x="141.37" y="455" width="23.13" height="28.5" as="geometry" />
        </mxCell>
        <mxCell id="rZFMNAKhzuR98ad_Tr1y-90" value="&lt;b&gt;CRM&lt;/b&gt;" style="text;html=1;align=center;verticalAlign=middle;whiteSpace=wrap;rounded=0;" parent="1" vertex="1">
          <mxGeometry x="100" y="318.5" width="60" height="30" as="geometry" />
        </mxCell>
        <mxCell id="rZFMNAKhzuR98ad_Tr1y-91" value="&lt;b&gt;ERP&lt;/b&gt;" style="text;html=1;align=center;verticalAlign=middle;whiteSpace=wrap;rounded=0;" parent="1" vertex="1">
          <mxGeometry x="100" y="480" width="60" height="30" as="geometry" />
        </mxCell>
        <mxCell id="dNuYq4mGLcDxCFE7ALZS-1" value="&lt;font style=&quot;font-size: 18px;&quot;&gt;&lt;b&gt;Data Flow Diagram&lt;/b&gt;&lt;/font&gt;" style="text;strokeColor=none;fillColor=none;align=left;verticalAlign=middle;spacingLeft=4;spacingRight=4;overflow=hidden;points=[[0,0.5],[1,0.5]];portConstraint=eastwest;rotatable=0;whiteSpace=wrap;html=1;" parent="1" vertex="1">
          <mxGeometry x="40" y="30" width="210" height="30" as="geometry" />
        </mxCell>
      </root>
    </mxGraphModel>
  </diagram>
</mxfile>
